Coordinates
version=1
nRows=5
nColumns=40
inDegrees=yes

Units are S.I. units (second, meters, Newtons, ...)
Angles are in degrees.

endheader
time	pelvis_tilt	pelvis_list	pelvis_rotation	pelvis_tx	pelvis_ty	pelvis_tz	hip_flexion_r	hip_adduction_r	hip_rotation_r	knee_angle_r	knee_angle_r_beta	ankle_angle_r	subtalar_angle_r	mtp_angle_r	hip_flexion_l	hip_adduction_l	hip_rotation_l	knee_angle_l	knee_angle_l_beta	ankle_angle_l	subtalar_angle_l	mtp_angle_l	lumbar_extension	lumbar_bending	lumbar_rotation	arm_flex_r	arm_add_r	arm_rot_r	elbow_flex_r	pro_sup_r	wrist_flex_r	wrist_dev_r	arm_flex_l	arm_add_l	arm_rot_l	elbow_flex_l	pro_sup_l	wrist_flex_l	wrist_dev_l
     52.19000000	     -4.86383641	     -4.96587973	    -13.92565474	      0.90777902	      0.92962798	      0.41470365	     26.01211658	      0.71867695	     -6.78032885	     19.08895226	     19.08895226	      3.65735723	      3.53251481	      0.23649338	      5.73245246	     -3.70658848	    -15.60249587	     18.69763791	     18.69763791	     19.01807984	    -15.51456809	      5.14301363	    -12.09125586	      9.44786379	      0.75105547	    -16.86652569	    -11.63807064	    -25.48101272	     22.60642233	     47.28849208	      0.00000000	      0.00000000	     33.27373462	    -21.99907315	     -3.52161657	     65.07664810	     47.59501377	      0.00000000	      0.00000000
     52.20971429	     -4.92584895	     -4.74509525	    -14.33627724	      0.90793401	      0.92815306	      0.41752372	     25.38182184	      1.08019356	     -7.31354138	     15.82670110	     15.82670110	      3.03790080	      6.14406692	      1.61945565	      5.19260050	     -3.55045685	    -16.08576082	     18.46633827	     18.46633827	     19.25753703	    -15.40234984	      4.56786916	    -12.05806662	      9.36942852	      0.84624851	    -17.64406827	    -11.60141832	    -25.65019694	     22.86504292	     47.28126202	      0.00000000	      0.00000000	     34.37512495	    -22.30715848	     -4.22142943	     66.50862067	     47.67851027	      0.00000000	      0.00000000
     52.22942857	     -5.10446289	     -4.30495202	    -14.72102831	      0.90831913	      0.92616019	      0.42049468	     25.19049535	      1.19852382	     -7.69262806	     13.61821266	     13.61821266	      2.47168490	      8.09607737	      2.52050645	      4.89380768	     -3.20874277	    -16.54960304	     18.36860109	     18.36860109	     19.57010375	    -15.29860939	      4.13094714	    -11.76961596	      9.05667417	      0.92779783	    -18.12204312	    -11.46685149	    -25.74290539	     23.04149984	     47.27401522	      0.00000000	      0.00000000	     35.39514432	    -22.50601040	     -4.74829272	     67.66570505	     47.74322225	      0.00000000	      0.00000000
     52.24914286	     -5.05549331	     -4.21537477	    -15.06041272	      0.90953524	      0.92462268	      0.42380261	     24.58740852	      1.49414572	     -8.63670717	     11.94706113	     11.94706113	      2.06080841	     10.52799163	      3.29881603	      4.15046848	     -3.18251710	    -17.01102721	     18.18255461	     18.18255461	     19.92027782	    -15.03510827	      3.51316636	    -11.75725500	      9.15826124	      1.23191073	    -18.65281141	    -11.46141805	    -25.92192217	     23.52752006	     47.25826628	      0.00000000	      0.00000000	     35.97715960	    -22.38363148	     -5.66280157	     69.39069541	     47.84083810	      0.00000000	      0.00000000
     52.26885714	     -5.10026388	     -3.97313263	    -15.37521128	      0.91100535	      0.92291089	      0.42733539	     24.40446467	      1.62212675	     -9.15465781	     11.31014963	     11.31014963	      1.76412855	     11.90017467	      3.30363779	      3.56711839	     -3.02928965	    -17.43310409	     18.04761304	     18.04761304	     20.21006698	    -14.85039302	      2.93481465	    -11.57073061	      9.10746391	      1.28636909	    -18.83455922	    -11.44991443	    -26.12352596	     24.31677905	     47.23044685	      0.00000000	      0.00000000	     36.20945504	    -22.32539865	     -7.00887923	     71.18723178	     47.96504940	      0.00000000	      0.00000000
